<svg xmlns="http://www.w3.org/2000/svg" data-name="Layer 1" viewBox="0 0 100 100" id="messenger"><path d="M68.44,41.66l-8.26,6.78a1.15,1.15,0,0,1-1.48,0L49.77,41a3,3,0,0,0-4.34.58L34.69,56.47a.71.71,0,0,0,.88,1.08l10.27-5.89a1.15,1.15,0,0,1,1.27.08l8.71,6.57a3,3,0,0,0,4.34-.85l9.28-14.81C69.87,42,69.06,41.16,68.44,41.66Zm0,0-8.26,6.78a1.15,1.15,0,0,1-1.48,0L49.77,41a3,3,0,0,0-4.34.58L34.69,56.47a.71.71,0,0,0,.88,1.08l10.27-5.89a1.15,1.15,0,0,1,1.27.08l8.71,6.57a3,3,0,0,0,4.34-.85l9.28-14.81C69.87,42,69.06,41.16,68.44,41.66Zm0,0-8.26,6.78a1.15,1.15,0,0,1-1.48,0L49.77,41a3,3,0,0,0-4.34.58L34.69,56.47a.71.71,0,0,0,.88,1.08l10.27-5.89a1.15,1.15,0,0,1,1.27.08l8.71,6.57a3,3,0,0,0,4.34-.85l9.28-14.81C69.87,42,69.06,41.16,68.44,41.66Zm0,0-8.26,6.78a1.15,1.15,0,0,1-1.48,0L49.77,41a3,3,0,0,0-4.34.58L34.69,56.47a.71.71,0,0,0,.88,1.08l10.27-5.89a1.15,1.15,0,0,1,1.27.08l8.71,6.57a3,3,0,0,0,4.34-.85l9.28-14.81C69.87,42,69.06,41.16,68.44,41.66Zm0,0-8.26,6.78a1.15,1.15,0,0,1-1.48,0L49.77,41a3,3,0,0,0-4.34.58L34.69,56.47a.71.71,0,0,0,.88,1.08l10.27-5.89a1.15,1.15,0,0,1,1.27.08l8.71,6.57a3,3,0,0,0,4.34-.85l9.28-14.81C69.87,42,69.06,41.16,68.44,41.66Zm0,0-8.26,6.78a1.15,1.15,0,0,1-1.48,0L49.77,41a3,3,0,0,0-4.34.58L34.69,56.47a.71.71,0,0,0,.88,1.08l10.27-5.89a1.15,1.15,0,0,1,1.27.08l8.71,6.57a3,3,0,0,0,4.34-.85l9.28-14.81C69.87,42,69.06,41.16,68.44,41.66Zm0,0-8.26,6.78a1.15,1.15,0,0,1-1.48,0L49.77,41a3,3,0,0,0-4.34.58L34.69,56.47a.71.71,0,0,0,.88,1.08l10.27-5.89a1.15,1.15,0,0,1,1.27.08l8.71,6.57a3,3,0,0,0,4.34-.85l9.28-14.81C69.87,42,69.06,41.16,68.44,41.66Zm0,0-8.26,6.78a1.15,1.15,0,0,1-1.48,0L49.77,41a3,3,0,0,0-4.34.58L34.69,56.47a.71.71,0,0,0,.88,1.08l10.27-5.89a1.15,1.15,0,0,1,1.27.08l8.71,6.57a3,3,0,0,0,4.34-.85l9.28-14.81C69.87,42,69.06,41.16,68.44,41.66Zm0,0-8.26,6.78a1.15,1.15,0,0,1-1.48,0L49.77,41a3,3,0,0,0-4.34.58L34.69,56.47a.71.71,0,0,0,.88,1.08l10.27-5.89a1.15,1.15,0,0,1,1.27.08l8.71,6.57a3,3,0,0,0,4.34-.85l9.28-14.81C69.87,42,69.06,41.16,68.44,41.66Zm0,0-8.26,6.78a1.15,1.15,0,0,1-1.48,0L49.77,41a3,3,0,0,0-4.34.58L34.69,56.47a.71.71,0,0,0,.88,1.08l10.27-5.89a1.15,1.15,0,0,1,1.27.08l8.71,6.57a3,3,0,0,0,4.34-.85l9.28-14.81C69.87,42,69.06,41.16,68.44,41.66Zm0,0-8.26,6.78a1.15,1.15,0,0,1-1.48,0L49.77,41a3,3,0,0,0-4.34.58L34.69,56.47a.71.71,0,0,0,.88,1.08l10.27-5.89a1.15,1.15,0,0,1,1.27.08l8.71,6.57a3,3,0,0,0,4.34-.85l9.28-14.81C69.87,42,69.06,41.16,68.44,41.66Zm0,0-8.26,6.78a1.15,1.15,0,0,1-1.48,0L49.77,41a3,3,0,0,0-4.34.58L34.69,56.47a.71.71,0,0,0,.88,1.08l10.27-5.89a1.15,1.15,0,0,1,1.27.08l8.71,6.57a3,3,0,0,0,4.34-.85l9.28-14.81C69.87,42,69.06,41.16,68.44,41.66Zm0,0-8.26,6.78a1.15,1.15,0,0,1-1.48,0L49.77,41a3,3,0,0,0-4.34.58L34.69,56.47a.71.71,0,0,0,.88,1.08l10.27-5.89a1.15,1.15,0,0,1,1.27.08l8.71,6.57a3,3,0,0,0,4.34-.85l9.28-14.81C69.87,42,69.06,41.16,68.44,41.66Zm0,0-8.26,6.78a1.15,1.15,0,0,1-1.48,0L49.77,41a3,3,0,0,0-4.34.58L34.69,56.47a.71.71,0,0,0,.88,1.08l10.27-5.89a1.15,1.15,0,0,1,1.27.08l8.71,6.57a3,3,0,0,0,4.34-.85l9.28-14.81C69.87,42,69.06,41.16,68.44,41.66Zm0,0-8.26,6.78a1.15,1.15,0,0,1-1.48,0L49.77,41a3,3,0,0,0-4.34.58L34.69,56.47a.71.71,0,0,0,.88,1.08l10.27-5.89a1.15,1.15,0,0,1,1.27.08l8.71,6.57a3,3,0,0,0,4.34-.85l9.28-14.81C69.87,42,69.06,41.16,68.44,41.66Zm0,0-8.26,6.78a1.15,1.15,0,0,1-1.48,0L49.77,41a3,3,0,0,0-4.34.58L34.69,56.47a.71.71,0,0,0,.88,1.08l10.27-5.89a1.15,1.15,0,0,1,1.27.08l8.71,6.57a3,3,0,0,0,4.34-.85l9.28-14.81C69.87,42,69.06,41.16,68.44,41.66Zm0,0-8.26,6.78a1.15,1.15,0,0,1-1.48,0L49.77,41a3,3,0,0,0-4.34.58L34.69,56.47a.71.71,0,0,0,.88,1.08l10.27-5.89a1.15,1.15,0,0,1,1.27.08l8.71,6.57a3,3,0,0,0,4.34-.85l9.28-14.81C69.87,42,69.06,41.16,68.44,41.66Zm0,0-8.26,6.78a1.15,1.15,0,0,1-1.48,0L49.77,41a3,3,0,0,0-4.34.58L34.69,56.47a.71.71,0,0,0,.88,1.08l10.27-5.89a1.15,1.15,0,0,1,1.27.08l8.71,6.57a3,3,0,0,0,4.34-.85l9.28-14.81C69.87,42,69.06,41.16,68.44,41.66Zm0,0-8.26,6.78a1.15,1.15,0,0,1-1.48,0L49.77,41a3,3,0,0,0-4.34.58L34.69,56.47a.71.71,0,0,0,.88,1.08l10.27-5.89a1.15,1.15,0,0,1,1.27.08l8.71,6.57a3,3,0,0,0,4.34-.85l9.28-14.81C69.87,42,69.06,41.16,68.44,41.66Zm0,0-8.26,6.78a1.15,1.15,0,0,1-1.48,0L49.77,41a3,3,0,0,0-4.34.58L34.69,56.47a.71.71,0,0,0,.88,1.08l10.27-5.89a1.15,1.15,0,0,1,1.27.08l8.71,6.57a3,3,0,0,0,4.34-.85l9.28-14.81C69.87,42,69.06,41.16,68.44,41.66Zm0,0-8.26,6.78a1.15,1.15,0,0,1-1.48,0L49.77,41a3,3,0,0,0-4.34.58L34.69,56.47a.71.71,0,0,0,.88,1.08l10.27-5.89a1.15,1.15,0,0,1,1.27.08l8.71,6.57a3,3,0,0,0,4.34-.85l9.28-14.81C69.87,42,69.06,41.16,68.44,41.66Zm0,0-8.26,6.78a1.15,1.15,0,0,1-1.48,0L49.77,41a3,3,0,0,0-4.34.58L34.69,56.47a.71.71,0,0,0,.88,1.08l10.27-5.89a1.15,1.15,0,0,1,1.27.08l8.71,6.57a3,3,0,0,0,4.34-.85l9.28-14.81C69.87,42,69.06,41.16,68.44,41.66ZM50.08,3.91A45.75,45.75,0,1,0,95.83,49.66,45.8,45.8,0,0,0,50.08,3.91ZM81.83,52.42C80.36,65.18,69.13,75.56,55.29,77A31.51,31.51,0,0,1,34.7,72.2l-9.76,4.44c-.35.16-.73-.16-.58-.49l4.23-9.25a25.8,25.8,0,0,1-6.44-18.64c.75-12.81,11.34-23.77,25.08-25.87C66.87,19.39,83.91,34.17,81.83,52.42ZM68.44,41.66l-8.26,6.78a1.15,1.15,0,0,1-1.48,0L49.77,41a3,3,0,0,0-4.34.58L34.69,56.47a.71.71,0,0,0,.88,1.08l10.27-5.89a1.15,1.15,0,0,1,1.27.08l8.71,6.57a3,3,0,0,0,4.34-.85l9.28-14.81C69.87,42,69.06,41.16,68.44,41.66Zm0,0-8.26,6.78a1.15,1.15,0,0,1-1.48,0L49.77,41a3,3,0,0,0-4.34.58L34.69,56.47a.71.71,0,0,0,.88,1.08l10.27-5.89a1.15,1.15,0,0,1,1.27.08l8.71,6.57a3,3,0,0,0,4.34-.85l9.28-14.81C69.87,42,69.06,41.16,68.44,41.66Zm0,0-8.26,6.78a1.15,1.15,0,0,1-1.48,0L49.77,41a3,3,0,0,0-4.34.58L34.69,56.47a.71.71,0,0,0,.88,1.08l10.27-5.89a1.15,1.15,0,0,1,1.27.08l8.71,6.57a3,3,0,0,0,4.34-.85l9.28-14.81C69.87,42,69.06,41.16,68.44,41.66Zm0,0-8.26,6.78a1.15,1.15,0,0,1-1.48,0L49.77,41a3,3,0,0,0-4.34.58L34.69,56.47a.71.71,0,0,0,.88,1.08l10.27-5.89a1.15,1.15,0,0,1,1.27.08l8.71,6.57a3,3,0,0,0,4.34-.85l9.28-14.81C69.87,42,69.06,41.16,68.44,41.66Zm0,0-8.26,6.78a1.15,1.15,0,0,1-1.48,0L49.77,41a3,3,0,0,0-4.34.58L34.69,56.47a.71.71,0,0,0,.88,1.08l10.27-5.89a1.15,1.15,0,0,1,1.27.08l8.71,6.57a3,3,0,0,0,4.34-.85l9.28-14.81C69.87,42,69.06,41.16,68.44,41.66Zm0,0-8.26,6.78a1.15,1.15,0,0,1-1.48,0L49.77,41a3,3,0,0,0-4.34.58L34.69,56.47a.71.71,0,0,0,.88,1.08l10.27-5.89a1.15,1.15,0,0,1,1.27.08l8.71,6.57a3,3,0,0,0,4.34-.85l9.28-14.81C69.87,42,69.06,41.16,68.44,41.66Zm0,0-8.26,6.78a1.15,1.15,0,0,1-1.48,0L49.77,41a3,3,0,0,0-4.34.58L34.69,56.47a.71.71,0,0,0,.88,1.08l10.27-5.89a1.15,1.15,0,0,1,1.27.08l8.71,6.57a3,3,0,0,0,4.34-.85l9.28-14.81C69.87,42,69.06,41.16,68.44,41.66Zm0,0-8.26,6.78a1.15,1.15,0,0,1-1.48,0L49.77,41a3,3,0,0,0-4.34.58L34.69,56.47a.71.71,0,0,0,.88,1.08l10.27-5.89a1.15,1.15,0,0,1,1.27.08l8.71,6.57a3,3,0,0,0,4.34-.85l9.28-14.81C69.87,42,69.06,41.16,68.44,41.66Zm0,0-8.26,6.78a1.15,1.15,0,0,1-1.48,0L49.77,41a3,3,0,0,0-4.34.58L34.69,56.47a.71.71,0,0,0,.88,1.08l10.27-5.89a1.15,1.15,0,0,1,1.27.08l8.71,6.57a3,3,0,0,0,4.34-.85l9.28-14.81C69.87,42,69.06,41.16,68.44,41.66Zm0,0-8.26,6.78a1.15,1.15,0,0,1-1.48,0L49.77,41a3,3,0,0,0-4.34.58L34.69,56.47a.71.71,0,0,0,.88,1.08l10.27-5.89a1.15,1.15,0,0,1,1.27.08l8.71,6.57a3,3,0,0,0,4.34-.85l9.28-14.81C69.87,42,69.06,41.16,68.44,41.66Zm0,0-8.26,6.78a1.15,1.15,0,0,1-1.48,0L49.77,41a3,3,0,0,0-4.34.58L34.69,56.47a.71.71,0,0,0,.88,1.08l10.27-5.89a1.15,1.15,0,0,1,1.27.08l8.71,6.57a3,3,0,0,0,4.34-.85l9.28-14.81C69.87,42,69.06,41.16,68.44,41.66Zm0,0-8.26,6.78a1.15,1.15,0,0,1-1.48,0L49.77,41a3,3,0,0,0-4.34.58L34.69,56.47a.71.71,0,0,0,.88,1.08l10.27-5.89a1.15,1.15,0,0,1,1.27.08l8.71,6.57a3,3,0,0,0,4.34-.85l9.28-14.81C69.87,42,69.06,41.16,68.44,41.66Zm0,0-8.26,6.78a1.15,1.15,0,0,1-1.48,0L49.77,41a3,3,0,0,0-4.34.58L34.69,56.47a.71.71,0,0,0,.88,1.08l10.27-5.89a1.15,1.15,0,0,1,1.27.08l8.71,6.57a3,3,0,0,0,4.34-.85l9.28-14.81C69.87,42,69.06,41.16,68.44,41.66Zm0,0-8.26,6.78a1.15,1.15,0,0,1-1.48,0L49.77,41a3,3,0,0,0-4.34.58L34.69,56.47a.71.71,0,0,0,.88,1.08l10.27-5.89a1.15,1.15,0,0,1,1.27.08l8.71,6.57a3,3,0,0,0,4.34-.85l9.28-14.81C69.87,42,69.06,41.16,68.44,41.66Zm0,0-8.26,6.78a1.15,1.15,0,0,1-1.48,0L49.77,41a3,3,0,0,0-4.34.58L34.69,56.47a.71.71,0,0,0,.88,1.08l10.27-5.89a1.15,1.15,0,0,1,1.27.08l8.71,6.57a3,3,0,0,0,4.34-.85l9.28-14.81C69.87,42,69.06,41.16,68.44,41.66Zm0,0-8.26,6.78a1.15,1.15,0,0,1-1.48,0L49.77,41a3,3,0,0,0-4.34.58L34.69,56.47a.71.71,0,0,0,.88,1.08l10.27-5.89a1.15,1.15,0,0,1,1.27.08l8.71,6.57a3,3,0,0,0,4.34-.85l9.28-14.81C69.87,42,69.06,41.16,68.44,41.66Zm0,0-8.26,6.78a1.15,1.15,0,0,1-1.48,0L49.77,41a3,3,0,0,0-4.34.58L34.69,56.47a.71.71,0,0,0,.88,1.08l10.27-5.89a1.15,1.15,0,0,1,1.27.08l8.71,6.57a3,3,0,0,0,4.34-.85l9.28-14.81C69.87,42,69.06,41.16,68.44,41.66Zm0,0-8.26,6.78a1.15,1.15,0,0,1-1.48,0L49.77,41a3,3,0,0,0-4.34.58L34.69,56.47a.71.71,0,0,0,.88,1.08l10.27-5.89a1.15,1.15,0,0,1,1.27.08l8.71,6.57a3,3,0,0,0,4.34-.85l9.28-14.81C69.87,42,69.06,41.16,68.44,41.66Zm0,0-8.26,6.78a1.15,1.15,0,0,1-1.48,0L49.77,41a3,3,0,0,0-4.34.58L34.69,56.47a.71.71,0,0,0,.88,1.08l10.27-5.89a1.15,1.15,0,0,1,1.27.08l8.71,6.57a3,3,0,0,0,4.34-.85l9.28-14.81C69.87,42,69.06,41.16,68.44,41.66Zm0,0-8.26,6.78a1.15,1.15,0,0,1-1.48,0L49.77,41a3,3,0,0,0-4.34.58L34.69,56.47a.71.71,0,0,0,.88,1.08l10.27-5.89a1.15,1.15,0,0,1,1.27.08l8.71,6.57a3,3,0,0,0,4.34-.85l9.28-14.81C69.87,42,69.06,41.16,68.44,41.66Zm0,0-8.26,6.78a1.15,1.15,0,0,1-1.48,0L49.77,41a3,3,0,0,0-4.34.58L34.69,56.47a.71.71,0,0,0,.88,1.08l10.27-5.89a1.15,1.15,0,0,1,1.27.08l8.71,6.57a3,3,0,0,0,4.34-.85l9.28-14.81C69.87,42,69.06,41.16,68.44,41.66Zm0,0-8.26,6.78a1.15,1.15,0,0,1-1.48,0L49.77,41a3,3,0,0,0-4.34.58L34.69,56.47a.71.71,0,0,0,.88,1.08l10.27-5.89a1.15,1.15,0,0,1,1.27.08l8.71,6.57a3,3,0,0,0,4.34-.85l9.28-14.81C69.87,42,69.06,41.16,68.44,41.66Zm0,0-8.26,6.78a1.15,1.15,0,0,1-1.48,0L49.77,41a3,3,0,0,0-4.34.58L34.69,56.47a.71.71,0,0,0,.88,1.08l10.27-5.89a1.15,1.15,0,0,1,1.27.08l8.71,6.57a3,3,0,0,0,4.34-.85l9.28-14.81C69.87,42,69.06,41.16,68.44,41.66Z" fill="#ffffff" class="color000000 svgShape"></path></svg>