<svg xmlns="http://www.w3.org/2000/svg" data-name="Layer 1" viewBox="0 0 100 100" id="twitter"><path d="M23.34,67.7s0,0,0,0C24.16,67.72,23.48,67.65,23.34,67.7Z" fill="#ffffff" class="color000000 svgShape"></path><path d="M23.34,67.7s0,0,0,0C24.16,67.72,23.48,67.65,23.34,67.7Z" fill="#ffffff" class="color000000 svgShape"></path><path d="M23.34,67.7s0,0,0,0C24.16,67.72,23.48,67.65,23.34,67.7Z" fill="#ffffff" class="color000000 svgShape"></path><path d="M23.34,67.7s0,0,0,0C24.16,67.72,23.48,67.65,23.34,67.7Z" fill="#ffffff" class="color000000 svgShape"></path><path d="M23.34,67.7s0,0,0,0C24.16,67.72,23.48,67.65,23.34,67.7Z" fill="#ffffff" class="color000000 svgShape"></path><path d="M23.34,67.7s0,0,0,0C24.16,67.72,23.48,67.65,23.34,67.7Z" fill="#ffffff" class="color000000 svgShape"></path><path d="M23.34,67.7s0,0,0,0C24.16,67.72,23.48,67.65,23.34,67.7Z" fill="#ffffff" class="color000000 svgShape"></path><path d="M23.34,67.7s0,0,0,0C24.16,67.72,23.48,67.65,23.34,67.7Z" fill="#ffffff" class="color000000 svgShape"></path><path d="M23.34,67.7s0,0,0,0C24.16,67.72,23.48,67.65,23.34,67.7Z" fill="#ffffff" class="color000000 svgShape"></path><path d="M23.34,67.7s0,0,0,0C24.16,67.72,23.48,67.65,23.34,67.7Z" fill="#ffffff" class="color000000 svgShape"></path><path d="M23.34,67.7s0,0,0,0C24.16,67.72,23.48,67.65,23.34,67.7Z" fill="#ffffff" class="color000000 svgShape"></path><path d="M23.34,67.7s0,0,0,0C24.16,67.72,23.48,67.65,23.34,67.7Z" fill="#ffffff" class="color000000 svgShape"></path><path d="M23.34,67.7s0,0,0,0C24.16,67.72,23.48,67.65,23.34,67.7Z" fill="#ffffff" class="color000000 svgShape"></path><path d="M23.34,67.7s0,0,0,0C24.16,67.72,23.48,67.65,23.34,67.7Z" fill="#ffffff" class="color000000 svgShape"></path><path d="M23.34,67.7s0,0,0,0C24.16,67.72,23.48,67.65,23.34,67.7Z" fill="#ffffff" class="color000000 svgShape"></path><path d="M23.34,67.7s0,0,0,0C24.16,67.72,23.48,67.65,23.34,67.7Z" fill="#ffffff" class="color000000 svgShape"></path><path d="M23.34,67.7s0,0,0,0C24.16,67.72,23.48,67.65,23.34,67.7Z" fill="#ffffff" class="color000000 svgShape"></path><path d="M23.34,67.7s0,0,0,0C24.16,67.72,23.48,67.65,23.34,67.7Z" fill="#ffffff" class="color000000 svgShape"></path><path d="M23.34,67.7s0,0,0,0C24.16,67.72,23.48,67.65,23.34,67.7Z" fill="#ffffff" class="color000000 svgShape"></path><path d="M23.34,67.7s0,0,0,0C24.16,67.72,23.48,67.65,23.34,67.7Z" fill="#ffffff" class="color000000 svgShape"></path><path d="M49.51,4.15A45.75,45.75,0,1,0,95.26,49.9,45.8,45.8,0,0,0,49.51,4.15ZM79,33.25a1.28,1.28,0,0,1-.26.85,21,21,0,0,1-4.25,4.43c-.24.19-.65.38-.65.72,0,8.81-2.25,17.61-8.67,24C57,71.37,44.72,73.58,33.83,70.57a30,30,0,0,1-6.06-2.42c-.64-.35-1.27-.71-1.89-1.12-.16-.13-.27-.24-.14-.33s.23-.07.72,0a21.35,21.35,0,0,0,9.07-1.16c1.58-.55,5-1.66,6-3.16,0,0,0,0,.07-.07-.4-.09-.79-.09-1.19-.16-3-.85-6.91-2.33-8.74-7.32-.12-.3,0-.45.3-.39a12.45,12.45,0,0,0,4.16-.13,6.38,6.38,0,0,1-1.41-.43,11.27,11.27,0,0,1-6.95-9,6.7,6.7,0,0,1-.06-1.25c0-.3.15-.39.4-.23a11.18,11.18,0,0,0,4.25,1.19c-.48-.37-.92-.78-1.36-1.19-3.23-3.06-4.48-9.29-1.9-13.17.21-.31.35-.31.61,0,5.91,6.74,13.2,9.88,22,11.19.24,0,.26,0,.23-.26A11.82,11.82,0,0,1,52,36.56a11.21,11.21,0,0,1,2.17-4.35,11.61,11.61,0,0,1,3.64-3A11.41,11.41,0,0,1,62,28h0a.17.17,0,0,0,.21,0H62l.34,0a10.93,10.93,0,0,1,7.85,2.67,4.32,4.32,0,0,1,.56.57.44.44,0,0,0,.44.11,27.54,27.54,0,0,0,6.4-2.44.32.32,0,0,1,.29,0c.09.07,0,.19,0,.28a10,10,0,0,1-1.8,3.27c-.51.63-1.79,2.21-2.65,2.35A21.93,21.93,0,0,0,78.8,33.2c.22-.1.2-.14.2,0Z" fill="#ffffff" class="color000000 svgShape"></path><path d="M23.34,67.7s0,0,0,0C24.16,67.72,23.48,67.65,23.34,67.7Z" fill="#ffffff" class="color000000 svgShape"></path><path d="M23.34,67.7s0,0,0,0C24.16,67.72,23.48,67.65,23.34,67.7Z" fill="#ffffff" class="color000000 svgShape"></path><path d="M23.34,67.7s0,0,0,0C24.16,67.72,23.48,67.65,23.34,67.7Z" fill="#ffffff" class="color000000 svgShape"></path><path d="M23.34,67.7s0,0,0,0C24.16,67.72,23.48,67.65,23.34,67.7Z" fill="#ffffff" class="color000000 svgShape"></path><path d="M23.34,67.7s0,0,0,0C24.16,67.72,23.48,67.65,23.34,67.7Z" fill="#ffffff" class="color000000 svgShape"></path><path d="M23.34,67.7s0,0,0,0C24.16,67.72,23.48,67.65,23.34,67.7Z" fill="#ffffff" class="color000000 svgShape"></path><path d="M23.34,67.7s0,0,0,0C24.16,67.72,23.48,67.65,23.34,67.7Z" fill="#ffffff" class="color000000 svgShape"></path><path d="M23.34,67.7s0,0,0,0C24.16,67.72,23.48,67.65,23.34,67.7Z" fill="#ffffff" class="color000000 svgShape"></path><path d="M23.34,67.7s0,0,0,0C24.16,67.72,23.48,67.65,23.34,67.7Z" fill="#ffffff" class="color000000 svgShape"></path><path d="M23.34,67.7s0,0,0,0C24.16,67.72,23.48,67.65,23.34,67.7Z" fill="#ffffff" class="color000000 svgShape"></path><path d="M23.34,67.7s0,0,0,0C24.16,67.72,23.48,67.65,23.34,67.7Z" fill="#ffffff" class="color000000 svgShape"></path><path d="M23.34,67.7s0,0,0,0C24.16,67.72,23.48,67.65,23.34,67.7Z" fill="#ffffff" class="color000000 svgShape"></path><path d="M23.34,67.7s0,0,0,0C24.16,67.72,23.48,67.65,23.34,67.7Z" fill="#ffffff" class="color000000 svgShape"></path><path d="M23.34,67.7s0,0,0,0C24.16,67.72,23.48,67.65,23.34,67.7Z" fill="#ffffff" class="color000000 svgShape"></path><path d="M23.34,67.7s0,0,0,0C24.16,67.72,23.48,67.65,23.34,67.7Z" fill="#ffffff" class="color000000 svgShape"></path><path d="M23.34,67.7s0,0,0,0C24.16,67.72,23.48,67.65,23.34,67.7Z" fill="#ffffff" class="color000000 svgShape"></path><path d="M23.34,67.7s0,0,0,0C24.16,67.72,23.48,67.65,23.34,67.7Z" fill="#ffffff" class="color000000 svgShape"></path><path d="M23.34,67.7s0,0,0,0C24.16,67.72,23.48,67.65,23.34,67.7Z" fill="#ffffff" class="color000000 svgShape"></path><path d="M23.34,67.7s0,0,0,0C24.16,67.72,23.48,67.65,23.34,67.7Z" fill="#ffffff" class="color000000 svgShape"></path><path d="M23.34,67.7s0,0,0,0C24.16,67.72,23.48,67.65,23.34,67.7Z" fill="#ffffff" class="color000000 svgShape"></path><path d="M23.34,67.7s0,0,0,0C24.16,67.72,23.48,67.65,23.34,67.7Z" fill="#ffffff" class="color000000 svgShape"></path></svg>